# xmcd CD database file
#
# Track frame offsets:
#	183
#	13045
#	26158
#	44428
#	57963
#	86023
#	103643
#	117673
#	131943
#	156375
#	166230
#	179363
#
# Disc length: 2792 seconds
#
# Revision: 0
# Processed by: cddbd v1.4PL0 Copyright (c) Steve Scherf et al.
# Submitted via: CDex 1.51
#
DISCID=a80ae60c
DTITLE=Directed By Barry Forgie - The Radio Big Band
DYEAR=1900
DGENRE=Jazz
TTITLE0=Dont't Count
TTITLE1=Song of the Volga Boatman
TTITLE2=Street Scene
TTITLE3=King Porter Stomp
TTITLE4=Camptown Races
TTITLE5=Ol' Man River
TTITLE6=Herman's Habit
TTITLE7=Crescendo In Blue
TTITLE8=Alfresco
TTITLE9=Say It Isn't So
TTITLE10=Opus In Pastel
TTITLE11=Magic Time
EXTD=
EXTT0=
EXTT1=
EXTT2=
EXTT3=
EXTT4=
EXTT5=
EXTT6=
EXTT7=
EXTT8=
EXTT9=
EXTT10=
EXTT11=
PLAYORDER=
